<?xml version="1.0" encoding="utf-8"?>
<!-- Generator: Adobe Illustrator 26.0.1, SVG Export Plug-In . SVG Version: 6.00 Build 0)  -->
<svg version="1.1" xmlns="http://www.w3.org/2000/svg" xmlns:xlink="http://www.w3.org/1999/xlink" x="0px" y="0px"
	 viewBox="0 0 400 400" style="enable-background:new 0 0 400 400;" xml:space="preserve">
<style type="text/css">
	.st0{fill:#FFFFFF;}
</style>
<g id="Capa_1">
</g>
<g id="Capa_4">
</g>
<g id="Capa_3">
</g>
<g id="Layer_1">
</g>
<g id="Modo_de_aislamiento">
</g>
<g id="ELEMENTS">
	<g>
		<g>
			<path d="M322.23,199.9c0-67.43-54.66-122.1-122.1-122.1c-67.43,0-122.1,54.67-122.1,122.1c0,60.94,44.65,111.45,103.02,120.61
				V235.2h-31V199.9h31V173c0-30.6,18.23-47.5,46.12-47.5c13.36,0,27.33,2.38,27.33,2.38v30.05h-15.4c-15.17,0-19.9,9.41-19.9,19.07
				v22.9h33.86l-5.41,35.29h-28.45v85.32C277.58,311.36,322.23,260.85,322.23,199.9z"/>
			<path class="st0" d="M247.66,235.2l5.41-35.29h-33.86V177c0-9.66,4.73-19.07,19.9-19.07h15.4v-30.05c0,0-13.97-2.38-27.33-2.38
				c-27.89,0-46.12,16.9-46.12,47.5v26.9h-31v35.29h31v85.32c6.22,0.98,12.59,1.48,19.08,1.48c6.49,0,12.86-0.51,19.08-1.48V235.2
				H247.66z"/>
		</g>
	</g>
</g>
</svg>
