<?xml version="1.0" encoding="utf-8"?>
<!-- Generator: Adobe Illustrator 26.0.1, SVG Export Plug-In . SVG Version: 6.00 Build 0)  -->
<svg version="1.1" xmlns="http://www.w3.org/2000/svg" xmlns:xlink="http://www.w3.org/1999/xlink" x="0px" y="0px"
	 viewBox="0 0 18 18" style="enable-background:new 0 0 18 18;" xml:space="preserve">
<style type="text/css">
	.st0{fill:#ED771B;}
	.st1{fill:#FFFFFF;}
	.st2{fill:none;stroke:#FFFFFF;stroke-width:0.0157;stroke-miterlimit:10;}
</style>
<g id="Capa_1">
</g>
<g id="Modo_de_aislamiento">
	<g>
		<circle class="st0" cx="8.77" cy="8.74" r="6.23"/>
	</g>
	<g>
		<path class="st1" d="M7.89,10.69v0.95H7.74v-0.48h-0.5v0.48H7.09v-0.95h0.15v0.36h0.5v-0.36H7.89z"/>
		<path class="st1" d="M8.44,10.97c0.2,0,0.35,0.15,0.35,0.35c0,0.19-0.16,0.35-0.35,0.35c-0.2,0-0.35-0.15-0.35-0.35
			C8.09,11.12,8.24,10.97,8.44,10.97z M8.44,11.54c0.12,0,0.23-0.1,0.23-0.23c0-0.12-0.11-0.23-0.23-0.23
			c-0.12,0-0.23,0.11-0.23,0.23C8.21,11.44,8.31,11.54,8.44,11.54z"/>
		<path class="st1" d="M8.91,11.03l0.02-0.04h0.05v-0.15l0.13-0.11v0.26h0.25l-0.01,0.1H9.11v0.28c0,0.13,0.07,0.19,0.13,0.19
			c0.06,0,0.09-0.01,0.11-0.04l0.06,0.1c-0.03,0.03-0.1,0.04-0.15,0.04c-0.17,0-0.28-0.1-0.28-0.3v-0.27L8.91,11.03z"/>
		<path class="st1" d="M10.12,11.19c0,0.02,0.01,0.04,0.01,0.07c0,0.07-0.05,0.09-0.11,0.09H9.61c0.01,0.12,0.11,0.2,0.21,0.2
			c0.08,0,0.15-0.04,0.18-0.1l0.09,0.06c-0.06,0.09-0.14,0.15-0.28,0.15c-0.18,0-0.32-0.15-0.32-0.35c0-0.19,0.13-0.34,0.32-0.34
			C9.98,10.97,10.08,11.06,10.12,11.19z M9.61,11.25h0.41c-0.02-0.1-0.09-0.18-0.2-0.18C9.71,11.07,9.63,11.15,9.61,11.25z"/>
		<path class="st1" d="M10.32,11.64v-0.98h0.13v0.98H10.32z"/>
	</g>
	<path class="st1" d="M5.2,8.9c-0.05,0-0.11-0.05-0.11-0.12c0-0.04,0.02-0.07,0.05-0.1c0.1-0.11,0.17-0.25,0.17-0.46
		c0-0.29-0.17-0.55-0.59-0.55c-0.54,0-0.92,0.49-0.92,1.24c0,0.67,0.33,1.22,0.95,1.22c0.36,0,0.54-0.17,0.68-0.32
		c0.06-0.07,0.13-0.08,0.19-0.03c0.05,0.04,0.05,0.1,0,0.18c-0.15,0.21-0.43,0.42-0.89,0.42c-0.75,0-1.19-0.64-1.19-1.47
		c0-0.87,0.48-1.49,1.17-1.49c0.57,0,0.85,0.37,0.85,0.79c0,0.3-0.12,0.53-0.26,0.65C5.27,8.89,5.23,8.9,5.2,8.9z"/>
	<path class="st1" d="M5.84,7.8c0-0.32,0.12-0.4,0.34-0.4H6.2c0.06,0,0.11-0.01,0.11,0.06c0,0.07-0.04,0.16-0.11,0.16H6.19
		c-0.07,0-0.11,0.03-0.11,0.16v0.68C6.2,8.2,6.44,8.12,6.61,8.12c0.24,0,0.42,0.15,0.42,0.48v0.68c0,0.09,0.02,0.13,0.07,0.13
		c0.04,0,0.07-0.03,0.1-0.05c0.11-0.09,0.23,0.04,0.12,0.15C7.28,9.55,7.21,9.62,7.07,9.62C6.9,9.62,6.8,9.52,6.8,9.3V8.63
		c0-0.2-0.08-0.29-0.23-0.29c-0.23,0-0.48,0.21-0.49,0.64V9.5c0,0.08-0.06,0.11-0.12,0.11c-0.06,0-0.11-0.04-0.11-0.11V7.8z"/>
	<path class="st1" d="M9.1,9.31C9.01,9.52,8.78,9.62,8.57,9.62c-0.24,0-0.43-0.14-0.43-0.49v-0.9c0-0.08,0.05-0.11,0.12-0.11
		c0.06,0,0.12,0.04,0.12,0.11v0.82c0,0.28,0.12,0.34,0.25,0.34c0.22,0,0.46-0.2,0.47-0.64V8.23c0-0.08,0.06-0.11,0.12-0.11
		c0.06,0,0.12,0.04,0.12,0.11v1.05c0,0.09,0.02,0.13,0.07,0.13c0.04,0,0.07-0.03,0.1-0.05c0.11-0.09,0.23,0.04,0.12,0.15
		C9.58,9.55,9.5,9.62,9.37,9.62C9.2,9.62,9.1,9.52,9.1,9.31z"/>
	<path class="st1" d="M10.52,8.49c-0.07-0.08-0.15-0.15-0.31-0.15c-0.15,0-0.25,0.09-0.25,0.21c0,0.13,0.11,0.2,0.25,0.29
		c0.18,0.11,0.4,0.22,0.4,0.46c0,0.2-0.15,0.33-0.37,0.33c-0.18,0-0.37-0.08-0.37-0.22c0-0.06,0.04-0.11,0.1-0.11
		c0.08,0,0.12,0.11,0.27,0.11c0.08,0,0.14-0.04,0.14-0.11c0-0.13-0.14-0.19-0.28-0.27C9.91,8.92,9.73,8.8,9.73,8.54
		c0-0.25,0.21-0.43,0.48-0.43c0.24,0,0.38,0.09,0.47,0.23C10.77,8.46,10.61,8.58,10.52,8.49z"/>
	<path class="st1" d="M11.95,9.34c-0.1,0.17-0.29,0.28-0.51,0.28c-0.34,0-0.54-0.28-0.54-0.65c0-0.47,0.27-0.86,0.71-0.86
		c0.14,0,0.25,0.05,0.34,0.18V8.22c0-0.07,0.05-0.11,0.11-0.11c0.07,0,0.12,0.04,0.12,0.11v1.05c0,0.09,0.02,0.13,0.07,0.13
		c0.04,0,0.07-0.03,0.1-0.05c0.11-0.09,0.23,0.04,0.12,0.15c-0.05,0.05-0.12,0.11-0.25,0.11C12.07,9.62,11.97,9.53,11.95,9.34z
		 M11.15,8.97c0,0.26,0.13,0.43,0.33,0.43c0.27,0,0.47-0.29,0.47-0.62V8.75c-0.01-0.23-0.12-0.41-0.34-0.41
		C11.31,8.34,11.15,8.66,11.15,8.97z"/>
	<path class="st1" d="M13.66,9.31c-0.09,0.21-0.32,0.31-0.52,0.31c-0.24,0-0.43-0.14-0.43-0.49v-0.9c0-0.08,0.05-0.11,0.12-0.11
		c0.06,0,0.12,0.04,0.12,0.11v0.82c0,0.28,0.12,0.34,0.25,0.34c0.22,0,0.46-0.2,0.47-0.64V8.22c0-0.08,0.06-0.11,0.12-0.11
		c0.05,0,0.11,0.03,0.11,0.11v1.41c0,0.52-0.29,0.74-0.69,0.74c-0.22,0-0.42-0.07-0.51-0.15c-0.03-0.03-0.05-0.06-0.05-0.09
		c0-0.06,0.05-0.11,0.11-0.11c0.03,0,0.06,0.01,0.09,0.03c0.1,0.06,0.2,0.1,0.36,0.1c0.28,0,0.45-0.17,0.45-0.55V9.31z"/>
	<path class="st1" d="M7.4,7.44C7.4,7.44,7.4,7.45,7.4,7.44c0.02,0.02,0.04,0.03,0.06,0.05c0.04,0.03,0.08,0.06,0.12,0.1
		c0,0,0.01,0,0.01,0.01C7.6,7.6,7.62,7.62,7.64,7.64C7.71,7.7,7.76,7.78,7.77,7.87c0,0,0,0,0,0c0.01,0.07,0.01,0.13-0.02,0.19
		c0,0,0,0,0,0c0,0.01,0,0.02-0.01,0.02c0,0,0,0,0,0c0.03-0.04,0.06-0.09,0.08-0.14c0.05-0.12,0.04-0.24-0.06-0.35
		C7.71,7.55,7.65,7.49,7.58,7.44C7.52,7.4,7.47,7.36,7.42,7.32c-0.05-0.04-0.09-0.09-0.1-0.16l0,0c0,0,0,0,0,0
		C7.31,7.15,7.31,7.13,7.31,7.11C7.29,7.14,7.28,7.17,7.26,7.2c-0.05,0.1-0.09,0.2-0.11,0.3C7.12,7.6,7.11,7.71,7.13,7.82
		c0,0,0,0,0,0c0.02,0.05,0.03,0.1,0.07,0.14c0.08,0.1,0.18,0.18,0.28,0.25c0.07,0.05,0.14,0.1,0.21,0.16
		c0.07,0.07,0.11,0.14,0.1,0.23c0,0,0,0.01,0.01,0.01C7.8,8.59,7.8,8.56,7.79,8.52c0-0.03-0.02-0.05-0.02-0.07l0,0
		C7.74,8.4,7.7,8.36,7.67,8.32c0,0-0.01,0-0.01-0.01c0,0-0.01,0-0.01-0.01c0,0-0.01-0.01-0.01-0.01C7.62,8.28,7.6,8.26,7.58,8.25
		C7.53,8.2,7.48,8.16,7.43,8.12c0,0-0.01,0-0.01-0.01C7.35,8.06,7.3,8,7.26,7.92l0,0C7.23,7.88,7.21,7.83,7.21,7.78l0,0
		C7.18,7.71,7.19,7.63,7.21,7.56l0,0c0,0,0,0,0-0.01c0,0,0-0.01,0-0.01c0.01-0.06,0.04-0.12,0.07-0.17c0,0.04,0,0.08,0,0.12l0,0
		C7.3,7.52,7.3,7.56,7.3,7.6c0,0.01,0.01,0.02,0.01,0.03c0.01,0.04,0.03,0.08,0.04,0.12l0,0c0.01,0.03,0.04,0.07,0.04,0.1l0,0
		c0,0,0,0,0,0.01l0,0c0,0,0,0,0,0.01l0,0C7.41,7.88,7.42,7.9,7.43,7.91l0,0C7.46,7.97,7.5,8.03,7.53,8.08l0,0
		c0.05,0.06,0.09,0.11,0.14,0.17c0,0,0.01,0.01,0.01,0.01c0,0,0,0,0,0.01c0,0,0,0,0,0C7.71,8.28,7.73,8.3,7.74,8.32l0,0
		C7.77,8.36,7.8,8.41,7.82,8.46l0,0c0.01-0.01,0-0.02,0-0.02C7.81,8.39,7.79,8.35,7.76,8.32C7.7,8.23,7.62,8.15,7.56,8.05
		c-0.04-0.06-0.08-0.12-0.1-0.18c0,0,0,0,0,0C7.43,7.83,7.41,7.8,7.4,7.76c0,0,0,0,0-0.01C7.37,7.71,7.36,7.65,7.35,7.6
		C7.34,7.55,7.32,7.5,7.32,7.45c0,0,0-0.01,0-0.01c-0.01-0.01-0.01-0.01,0-0.02c0,0,0,0,0,0c-0.02-0.02-0.01-0.05,0-0.07
		C7.34,7.39,7.37,7.41,7.4,7.44z"/>
	<path class="st1" d="M11.34,7.78l-0.53,0c-0.04,0-0.06-0.04-0.05-0.07c0.08-0.17,0.15-0.33,0.23-0.5c0.02-0.04,0.07-0.04,0.09,0
		c0.1,0.17,0.19,0.33,0.29,0.5C11.41,7.74,11.38,7.78,11.34,7.78z"/>
	<path class="st1" d="M11.13,6.93c0.11-0.24,0.21-0.45,0.33-0.66c0.01-0.02,0.05-0.03,0.07,0c0.13,0.17,0.26,0.34,0.4,0.52
		c0.04,0.05,0.01,0.13-0.06,0.14C11.64,6.96,11.42,6.98,11.18,7C11.15,7.01,11.12,6.97,11.13,6.93z"/>
	<path class="st1" d="M10.34,7.76c0.02,0.01,0.01,0.03-0.01,0.03C10.13,7.8,9.94,7.81,9.74,7.82c-0.04,0-0.09,0.01-0.08-0.05
		C9.68,7.67,9.7,7.56,9.73,7.45C9.74,7.4,9.79,7.42,9.82,7.44L10.34,7.76z"/>
	<path class="st1" d="M9.78,7.36l0.77,0.44c0.04,0.02,0.08,0.01,0.1-0.03l0.27-0.59c0.02-0.04-0.02-0.08-0.06-0.07L9.79,7.3
		C9.76,7.31,9.75,7.35,9.78,7.36z"/>
	<path class="st2" d="M10.87,7.05L9.81,7.26C9.78,7.27,9.75,7.23,9.78,7.2L10.4,6.5c0.02-0.02,0.05-0.02,0.06,0l0.44,0.46
		C10.94,6.99,10.92,7.04,10.87,7.05z"/>
	<path class="st1" d="M10.55,6.52l0.41,0.38c0.03,0.03,0.09,0.02,0.11-0.02l0.32-0.59c0.01-0.03-0.01-0.06-0.04-0.05l-0.77,0.21
		C10.53,6.46,10.52,6.5,10.55,6.52z"/>
	<path class="st1" d="M11.19,7.19l0.28,0.48c0.02,0.03,0.06,0.03,0.08,0l0.43-0.6C12,7.04,11.97,6.99,11.92,7l-0.67,0.08
		C11.19,7.09,11.16,7.14,11.19,7.19z"/>
	<path class="st2" d="M11.63,6.34l0.36,0.46c0.04,0.05,0.12,0.06,0.16,0.01l0.19-0.19c0.03-0.03,0.02-0.09-0.02-0.1l-0.64-0.23
		C11.64,6.27,11.61,6.31,11.63,6.34z"/>
	<path class="st1" d="M12.38,6.63l-0.19,0.24c-0.02,0.03-0.01,0.07,0.03,0.08l0.73,0.2c0.04,0.01,0.07-0.04,0.04-0.07l-0.51-0.46
		C12.44,6.6,12.4,6.6,12.38,6.63z"/>
	<path class="st1" d="M12.12,7.1l0.25,0.56c0.02,0.05,0.08,0.06,0.12,0.03l0.53-0.39c0.03-0.02,0.02-0.07-0.02-0.08l-0.81-0.21
		C12.14,7,12.1,7.05,12.12,7.1z"/>
	<path class="st1" d="M12.58,7.69l0.45-0.32c0.03-0.02,0.08-0.01,0.09,0.03l0.1,0.36c0.01,0.04-0.02,0.07-0.06,0.07l-0.55-0.04
		C12.56,7.79,12.54,7.72,12.58,7.69z"/>
	<path class="st1" d="M6.34,11.41H3.67c-0.12,0-0.22-0.1-0.22-0.22v0c0-0.12,0.1-0.22,0.22-0.22h2.68c0.12,0,0.22,0.1,0.22,0.22v0
		C6.56,11.31,6.46,11.41,6.34,11.41z"/>
	<path class="st1" d="M13.9,11.41h-2.68c-0.12,0-0.22-0.1-0.22-0.22l0,0c0-0.12,0.1-0.22,0.22-0.22h2.68c0.12,0,0.22,0.1,0.22,0.22
		l0,0C14.12,11.31,14.02,11.41,13.9,11.41z"/>
</g>
</svg>
