<?xml version="1.0" encoding="utf-8"?>
<!-- Generator: Adobe Illustrator 26.0.1, SVG Export Plug-In . SVG Version: 6.00 Build 0)  -->
<svg version="1.1" xmlns="http://www.w3.org/2000/svg" xmlns:xlink="http://www.w3.org/1999/xlink" x="0px" y="0px"
	 viewBox="0 0 400 400" style="enable-background:new 0 0 400 400;" xml:space="preserve">
<style type="text/css">
	.st0{fill:#FFFFFF;}
</style>
<g id="Capa_1">
</g>
<g id="Capa_4">
</g>
<g id="Capa_3">
</g>
<g id="Layer_1">
</g>
<g id="Modo_de_aislamiento">
</g>
<g id="ELEMENTS">
	<circle cx="211.58" cy="208.48" r="130.52"/>
	<g>
		<g>
			<path class="st0" d="M252.09,159.11c-4.95,0-8.97,4.02-8.97,8.97c0,4.96,4.02,8.97,8.97,8.97c4.96,0,8.97-4.02,8.97-8.97
				C261.07,163.13,257.05,159.11,252.09,159.11z"/>
			<path class="st0" d="M212.21,170.61c-20.78,0-37.69,16.91-37.69,37.69c0,20.78,16.91,37.69,37.69,37.69
				c20.78,0,37.69-16.91,37.69-37.69C249.89,187.52,232.99,170.61,212.21,170.61z M212.21,232.44c-13.31,0-24.14-10.83-24.14-24.14
				c0-13.31,10.83-24.14,24.14-24.14c13.31,0,24.14,10.83,24.14,24.14C236.35,221.61,225.52,232.44,212.21,232.44z"/>
			<path class="st0" d="M242.13,284.82h-61.1c-25.35,0-45.97-20.62-45.97-45.97v-61.1c0-25.35,20.62-45.97,45.97-45.97h61.1
				c25.35,0,45.97,20.62,45.97,45.97v61.1C288.1,264.2,267.47,284.82,242.13,284.82z M181.03,146.18
				c-17.41,0-31.57,14.16-31.57,31.57v61.1c0,17.41,14.16,31.57,31.57,31.57h61.1c17.41,0,31.57-14.16,31.57-31.57v-61.1
				c0-17.41-14.16-31.57-31.57-31.57H181.03z"/>
		</g>
	</g>
</g>
</svg>
