<?xml version="1.0" encoding="utf-8"?>
<!-- Generator: Adobe Illustrator 26.0.1, SVG Export Plug-In . SVG Version: 6.00 Build 0)  -->
<svg version="1.1" xmlns="http://www.w3.org/2000/svg" xmlns:xlink="http://www.w3.org/1999/xlink" x="0px" y="0px"
	 viewBox="0 0 400 400" style="enable-background:new 0 0 400 400;" xml:space="preserve">
<style type="text/css">
	.st0{fill:none;stroke:#000000;stroke-width:0.4766;stroke-miterlimit:10;}
</style>
<g id="Capa_1">
</g>
<g id="Capa_4">
	<g>
		<g>
			<path d="M178.05,240.48v29.34h-4.55v-14.73h-15.58v14.73h-4.55v-29.34h4.55v11.15h15.58v-11.15H178.05z"/>
			<path d="M195.12,248.9c6.04,0,10.83,4.71,10.83,10.67c0,6-4.79,10.67-10.83,10.67c-6.08,0-10.67-4.67-10.67-10.67
				C184.45,253.6,189.04,248.9,195.12,248.9z M195.12,266.6c3.82,0,7.08-3.18,7.08-7.04c0-3.74-3.26-7-7.08-7
				c-3.82,0-6.96,3.26-6.96,7C188.15,263.43,191.29,266.6,195.12,266.6z"/>
			<path d="M209.77,250.71l0.56-1.33h1.53v-4.55l4.07-3.38v7.93h7.69l-0.4,3.22h-7.28v8.53c0,3.94,2.05,5.76,4.06,5.76
				c1.97,0,2.74-0.28,3.42-1.13l1.93,3.14c-0.93,0.93-2.98,1.33-4.71,1.33c-5.27,0-8.77-2.94-8.77-9.14v-8.49L209.77,250.71z"/>
			<path d="M247.16,255.9c0.12,0.48,0.28,1.33,0.28,2.05c0,2.13-1.53,2.78-3.34,2.78h-12.76c0.2,3.62,3.5,6.16,6.64,6.16
				c2.46,0,4.67-1.25,5.67-3.1l2.78,1.73c-1.77,2.66-4.31,4.71-8.57,4.71c-5.47,0-10.02-4.67-10.02-10.95
				c0-5.96,4.11-10.38,10.02-10.38C242.77,248.9,245.95,251.75,247.16,255.9z M231.46,257.75h12.6c-0.48-3.02-2.86-5.55-6.2-5.55
				C234.52,252.2,231.83,254.61,231.46,257.75z"/>
			<path d="M253.36,269.82v-30.19h3.94v30.19H253.36z"/>
		</g>
	</g>
</g>
<g id="Capa_3">
	<path d="M95.24,185.03c-1.63,0-3.5-1.49-3.5-3.71c0-1.24,0.58-2.1,1.52-3.09c3.15-3.47,5.13-7.8,5.13-14.24
		c0-8.91-5.25-16.84-18.32-16.84c-16.69,0-28.35,15.23-28.35,38.38c0,20.67,10.15,37.63,29.4,37.63c11.2,0,16.57-5.2,20.89-9.78
		c1.98-2.1,4.08-2.6,5.83-0.99c1.4,1.24,1.63,3.22,0,5.57c-4.78,6.44-13.42,13-27.42,13c-23.1,0-36.76-19.81-36.76-45.31
		c0-26.86,14.94-46.17,36.17-46.17c17.5,0,26.14,11.39,26.14,24.51c0,9.41-3.85,16.47-8.05,19.93
		C97.22,184.66,96.17,185.03,95.24,185.03z"/>
	<path d="M114.96,151.13c0-10.04,3.62-12.37,10.62-12.37h0.47c1.98,0,3.38-0.35,3.38,1.99c0,2.22-1.28,5.02-3.38,5.02h-0.47
		c-2.22,0-3.38,1.05-3.38,5.02v21.02c3.85-8.4,11.2-10.97,16.57-10.97c7.47,0,12.95,4.67,12.95,14.82v21c0,2.68,0.7,3.97,2.1,3.97
		c1.28,0,2.1-0.82,3.03-1.63c3.38-2.92,7.12,1.28,3.85,4.78c-1.4,1.52-3.62,3.38-7.7,3.38c-5.37,0-8.52-3.03-8.52-9.69V176.7
		c0-6.3-2.57-8.98-7.23-8.98c-7.23,0-14.82,6.53-15.05,19.84v16.1c0,2.33-1.87,3.5-3.73,3.5c-1.75,0-3.5-1.17-3.5-3.5V151.13z"/>
	<path d="M215.43,197.7c-2.68,6.53-9.8,9.45-16.1,9.45c-7.35,0-13.42-4.43-13.42-15.05v-27.77c0-2.33,1.52-3.5,3.62-3.5
		c1.98,0,3.62,1.17,3.62,3.5v25.32c0,8.52,3.85,10.62,7.82,10.62c6.88,0,14.12-6.18,14.47-19.72v-16.22c0-2.33,1.75-3.5,3.62-3.5
		c1.75,0,3.62,1.17,3.62,3.5v32.32c0,2.68,0.7,3.97,2.1,3.97c1.28,0,2.1-0.82,3.03-1.63c3.38-2.92,7.12,1.28,3.85,4.78
		c-1.4,1.52-3.62,3.38-7.7,3.38C218.58,207.16,215.43,204.24,215.43,197.7z"/>
	<path d="M259.54,172.38c-2.22-2.57-4.78-4.78-9.57-4.78c-4.78,0-7.82,2.92-7.82,6.42c0,4.08,3.38,6.18,7.58,8.87
		c5.6,3.27,12.37,6.65,12.37,14.24c0,6.3-4.79,10.27-11.44,10.27c-5.6,0-11.43-2.45-11.43-6.77c0-1.98,1.28-3.38,3.15-3.38
		c2.33,0,3.73,3.5,8.28,3.5c2.57,0,4.32-1.28,4.32-3.38c0-3.97-4.43-5.83-8.75-8.4c-5.6-3.38-11.2-7.12-11.2-14.94
		c0-7.58,6.42-13.19,14.94-13.19c7.47,0,11.78,2.8,14.59,7.12C267,171.57,262.22,175.18,259.54,172.38z"/>
	<path d="M303.64,198.75c-3.15,5.37-9.1,8.64-15.87,8.64c-10.38,0-16.69-8.52-16.69-19.95c0-14.59,8.4-26.6,21.94-26.6
		c4.43,0,7.7,1.52,10.62,5.48v-2.1c0-2.22,1.4-3.38,3.5-3.38c2.1,0,3.73,1.17,3.73,3.38v32.44c0,2.68,0.7,3.97,2.1,3.97
		c1.28,0,2.1-0.82,3.03-1.63c3.38-2.92,7.12,1.28,3.73,4.78c-1.4,1.52-3.62,3.38-7.58,3.38
		C307.15,207.16,304.11,204.59,303.64,198.75z M278.91,187.2c0,8.17,3.97,13.3,10.15,13.3c8.4,0,14.59-8.87,14.59-19.02v-1.05
		c-0.35-7.12-3.85-12.72-10.5-12.72C283.81,167.72,278.91,177.63,278.91,187.2z"/>
	<path d="M356.39,197.7c-2.68,6.53-9.8,9.45-16.1,9.45c-7.35,0-13.42-4.43-13.42-15.05v-27.77c0-2.33,1.52-3.5,3.62-3.5
		c1.98,0,3.62,1.17,3.62,3.5v25.32c0,8.52,3.85,10.62,7.82,10.62c6.88,0,14.12-6.18,14.47-19.72v-16.34c0-2.33,1.87-3.38,3.73-3.38
		c1.63,0,3.5,1.05,3.5,3.38v43.64c0,15.99-9.1,22.87-21.24,22.87c-6.88,0-13.07-2.1-15.87-4.78c-1.05-1.05-1.4-1.98-1.4-2.8
		c0-1.75,1.4-3.5,3.38-3.5c1.05,0,1.98,0.35,2.92,1.05c3.15,1.87,6.18,3.15,10.97,3.15c8.52,0,14-5.25,14-17.04V197.7z"/>
</g>
<g id="Layer_1">
	<path d="M162.9,140.01c0.09,0.07,0.18,0.15,0.27,0.22c0.49,0.4,0.99,0.81,1.48,1.21c1.22,0.98,2.44,1.96,3.66,2.95
		c0.1,0.07,0.19,0.13,0.29,0.2c0.72,0.4,1.33,0.95,1.91,1.52c2.11,2.04,3.73,4.33,4.07,7.26c0.02,0.03,0.02,0.07,0.01,0.1
		c0.39,2.07,0.24,4.06-0.6,5.96c0.01,0.05,0,0.09-0.04,0.11c0.06,0.27-0.11,0.47-0.19,0.69c0.03,0.01,0.06,0.02,0.09,0.03
		c0.9-1.35,1.78-2.71,2.35-4.25c1.42-3.82,1.34-7.48-1.73-10.81c-1.78-1.93-3.81-3.59-5.92-5.12c-1.71-1.24-3.33-2.55-4.89-3.96
		c-1.47-1.32-2.7-2.84-3.06-4.82l0.04-0.01c0,0-0.04,0-0.04,0c-0.33-0.43-0.2-0.97-0.41-1.49c-0.63,0.83-0.97,1.74-1.42,2.6
		c-1.56,2.96-2.66,6.11-3.54,9.35c-0.88,3.25-1.17,6.57-0.59,9.97c0,0,0.01,0.08,0.01,0.08c0.49,1.56,1,3.12,2.06,4.45
		c2.44,3.05,5.43,5.51,8.59,7.81c2.21,1.6,4.46,3.16,6.43,5.05c2.11,2.01,3.49,4.29,3,7.23c-0.02,0.14-0.02,0.29,0.25,0.36
		c0.28-1.11,0.41-2.21,0.21-3.39c-0.14-0.8-0.62-1.48-0.74-2.27l0,0c-0.88-1.46-2-2.75-3.14-4.02c-0.09-0.07-0.18-0.14-0.27-0.22
		c-0.15-0.04-0.24-0.13-0.25-0.28c-0.14-0.1-0.28-0.21-0.42-0.31c-0.54-0.43-1.09-0.85-1.62-1.29c-1.62-1.35-3.35-2.58-4.87-4.05
		c-0.09-0.07-0.18-0.14-0.28-0.21c-1.99-1.68-3.78-3.51-4.99-5.81l0,0c-0.79-1.34-1.48-2.7-1.57-4.26l0,0
		c-0.7-2.4-0.4-4.73,0.22-7.04l0.01,0c0.01-0.07,0.02-0.15,0.02-0.22c0.04-0.1,0.08-0.21,0.11-0.31c0.36-1.92,1.15-3.67,2.11-5.38
		c0.01,1.25,0.02,2.5,0.03,3.74l0.02,0.05c0.35,1.15,0.27,2.34,0.49,3.5c0.08,0.3,0.17,0.6,0.25,0.9c0.41,1.24,0.81,2.48,1.22,3.72
		l0.01,0.01c0.46,1.05,1.13,2.02,1.38,3.15l0.02,0.03c0.1,0.04,0.12,0.11,0.09,0.2l0,0c0.03,0.08,0.07,0.15,0.1,0.23l0-0.01
		c0.34,0.44,0.57,0.93,0.74,1.45l0,0.01c1.02,1.78,2.13,3.52,3.29,5.23l0,0c1.45,1.7,2.9,3.4,4.35,5.11
		c0.09,0.08,0.17,0.16,0.26,0.24c0.04,0.06,0.08,0.13,0.13,0.19c0.05,0.02,0.09,0.06,0.11,0.11c0.58,0.52,1.08,1.09,1.46,1.76
		l0.01,0.01c1.15,1.22,1.92,2.66,2.63,4.14l0,0c0.18-0.24,0.07-0.48-0.01-0.73c-0.42-1.29-1.02-2.5-1.82-3.61
		c-2.02-2.82-4.48-5.33-6.41-8.21c-1.21-1.8-2.4-3.62-3.24-5.62c0,0-0.04-0.06-0.03-0.06c-0.63-1.03-1.08-2.14-1.45-3.27
		c-0.02-0.07-0.05-0.14-0.07-0.21c-0.81-1.55-1.26-3.21-1.67-4.88c-0.36-1.46-0.81-2.92-0.81-4.44c-0.01-0.08-0.01-0.16-0.02-0.24
		c-0.17-0.19-0.15-0.4-0.05-0.6c0,0,0-0.01,0-0.01c-0.5-0.76-0.17-1.51-0.15-2.29C161.07,138.33,162.23,138.96,162.9,140.01z"/>
</g>
<g id="Modo_de_aislamiento">
	<path d="M284.86,150.54l-16.23,0c-1.13,0-1.88-1.17-1.41-2.19c2.42-5.2,4.77-10.24,7.25-15.58c0.53-1.14,2.13-1.2,2.75-0.12
		c3.03,5.27,5.91,10.26,8.98,15.58C286.8,149.26,286.06,150.54,284.86,150.54z"/>
	<path d="M278.37,124.32c3.25-7.27,6.39-13.8,10.28-20.51c0.44-0.76,1.52-0.84,2.06-0.13c4.1,5.37,8.06,10.56,12.33,16.15
		c1.29,1.69,0.24,4.15-1.88,4.38c-7.21,0.78-13.97,1.51-21.2,2.29C278.76,126.64,277.88,125.42,278.37,124.32z"/>
	<path d="M253.75,149.83c0.47,0.29,0.28,1.01-0.27,1.04c-6.02,0.33-12.04,0.66-18.06,0.97c-1.13,0.06-2.72,0.16-2.49-1.46
		c0.47-3.37,1.21-6.72,2.07-10.03c0.44-1.71,1.79-1.01,2.77-0.45L253.75,149.83z"/>
	<path d="M236.41,137.57l23.87,13.72c1.09,0.62,2.52,0.2,3.02-0.89l8.33-18.22c0.55-1.2-0.56-2.47-1.94-2.23l-32.91,5.76
		C235.81,135.88,235.56,137.08,236.41,137.57z"/>
	<path d="M270.35,127.94l-32.76,6.6c-1.07,0.22-1.8-1.04-1.09-1.87l19.12-21.89c0.52-0.59,1.44-0.62,1.98-0.05l13.68,14.23
		C272.25,125.98,271.72,127.66,270.35,127.94z"/>
	<path class="st0" d="M260.22,111.45l12.51,11.88c1.02,0.97,2.68,0.7,3.34-0.54l9.75-18.19c0.45-0.84-0.32-1.82-1.25-1.57
		l-23.84,6.41C259.84,109.69,259.55,110.81,260.22,111.45z"/>
	<path d="M280.1,132.25l8.63,14.72c0.48,0.82,1.76,0.89,2.32,0.11l13.3-18.48c0.74-1.03-0.21-2.39-1.57-2.22l-20.81,2.55
		C280.23,129.14,279.28,130.84,280.1,132.25z"/>
	<path class="st0" d="M293.73,105.98l11.07,14.28c1.23,1.58,3.58,1.72,4.98,0.28l5.84-5.99c1-1.03,0.61-2.75-0.75-3.24l-19.83-7.12
		C293.95,103.8,293.03,105.07,293.73,105.98z"/>
	<path d="M316.72,114.91l-5.9,7.34c-0.74,0.93-0.29,2.31,0.86,2.62l22.55,6.12c1.31,0.35,2.2-1.29,1.19-2.19l-15.89-14.13
		C318.69,113.94,317.41,114.05,316.72,114.91z"/>
	<path d="M308.84,129.49l7.77,17.38c0.65,1.45,2.46,1.93,3.74,0.99l16.32-11.94c0.95-0.7,0.67-2.19-0.47-2.49l-25.1-6.59
		C309.53,126.43,308.18,128.01,308.84,129.49z"/>
	<path d="M323.16,147.67l13.93-9.79c0.99-0.7,2.38-0.21,2.71,0.94l3.15,11.03c0.33,1.16-0.61,2.29-1.82,2.2l-17.07-1.24
		C322.4,150.7,321.81,148.61,323.16,147.67z"/>
	<path d="M131.6,262.48H45.4c-2.76,0-5.01-2.26-5.01-5.01v-3.56c0-2.76,2.26-5.01,5.01-5.01h86.2c2.76,0,5.01,2.26,5.01,5.01v3.56
		C136.61,260.23,134.35,262.48,131.6,262.48z"/>
	<path d="M365.51,262.48h-86.2c-2.76,0-5.01-2.26-5.01-5.01v-3.56c0-2.76,2.26-5.01,5.01-5.01h86.2c2.76,0,5.01,2.26,5.01,5.01v3.56
		C370.53,260.23,368.27,262.48,365.51,262.48z"/>
</g>
</svg>
