<?xml version="1.0" encoding="utf-8"?>
<!-- Generator: Adobe Illustrator 26.0.1, SVG Export Plug-In . SVG Version: 6.00 Build 0)  -->
<svg version="1.1" xmlns="http://www.w3.org/2000/svg" xmlns:xlink="http://www.w3.org/1999/xlink" x="0px" y="0px"
	 viewBox="0 0 285.3 143.1" style="enable-background:new 0 0 285.3 143.1;" xml:space="preserve">
<style type="text/css">
	.st0{fill:none;stroke:#000000;stroke-width:0.4018;stroke-miterlimit:10;}
</style>
<g id="Capa_1">
</g>
<g id="Capa_4">
	<g>
		<path d="M119.5,117.2v24.7h-3.8v-12.4h-13.1v12.4h-3.8v-24.7h3.8v9.4h13.1v-9.4H119.5z"/>
		<path d="M133.9,124.3c5.1,0,9.1,4,9.1,9c0,5.1-4,9-9.1,9c-5.1,0-9-3.9-9-9C124.9,128.2,128.8,124.3,133.9,124.3z M133.9,139.2
			c3.2,0,6-2.7,6-5.9c0-3.2-2.7-5.9-6-5.9c-3.2,0-5.9,2.7-5.9,5.9C128,136.5,130.7,139.2,133.9,139.2z"/>
		<path d="M146.3,125.8l0.5-1.1h1.3v-3.8l3.4-2.9v6.7h6.5l-0.3,2.7h-6.1v7.2c0,3.3,1.7,4.9,3.4,4.9c1.7,0,2.3-0.2,2.9-0.9l1.6,2.6
			c-0.8,0.8-2.5,1.1-4,1.1c-4.4,0-7.4-2.5-7.4-7.7v-7.2L146.3,125.8z"/>
		<path d="M177.8,130.2c0.1,0.4,0.2,1.1,0.2,1.7c0,1.8-1.3,2.3-2.8,2.3h-10.8c0.2,3.1,3,5.2,5.6,5.2c2.1,0,3.9-1.1,4.8-2.6l2.3,1.5
			c-1.5,2.2-3.6,4-7.2,4c-4.6,0-8.4-3.9-8.4-9.2c0-5,3.5-8.8,8.4-8.8C174.1,124.3,176.8,126.7,177.8,130.2z M164.6,131.7h10.6
			c-0.4-2.5-2.4-4.7-5.2-4.7C167.1,127,164.9,129.1,164.6,131.7z"/>
		<path d="M183,141.9v-25.4h3.3v25.4H183z"/>
	</g>
</g>
<g id="Capa_3">
	<path d="M49.7,70.4c-1.4,0-3-1.3-3-3.1c0-1,0.5-1.8,1.3-2.6c2.7-2.9,4.3-6.6,4.3-12c0-7.5-4.4-14.2-15.4-14.2
		C22.9,38.5,13,51.3,13,70.8c0,17.4,8.6,31.7,24.8,31.7c9.4,0,14-4.4,17.6-8.2c1.7-1.8,3.4-2.2,4.9-0.8c1.2,1,1.4,2.7,0,4.7
		c-4,5.4-11.3,11-23.1,11c-19.5,0-31-16.7-31-38.2C6.2,48.3,18.8,32,36.7,32c14.8,0,22,9.6,22,20.7c0,7.9-3.2,13.9-6.8,16.8
		C51.4,70.1,50.5,70.4,49.7,70.4z"/>
	<path d="M66.3,41.8c0-8.5,3-10.4,9-10.4h0.4c1.7,0,2.9-0.3,2.9,1.7c0,1.9-1.1,4.2-2.9,4.2h-0.4c-1.9,0-2.9,0.9-2.9,4.2v17.7
		c3.2-7.1,9.4-9.2,14-9.2c6.3,0,10.9,3.9,10.9,12.5v17.7c0,2.3,0.6,3.3,1.8,3.3c1.1,0,1.8-0.7,2.6-1.4c2.9-2.5,6,1.1,3.2,4
		c-1.2,1.3-3,2.9-6.5,2.9c-4.5,0-7.2-2.6-7.2-8.2V63.4c0-5.3-2.2-7.6-6.1-7.6c-6.1,0-12.5,5.5-12.7,16.7v13.6c0,2-1.6,3-3.1,3
		c-1.5,0-3-1-3-3V41.8z"/>
	<path d="M151,81.1c-2.3,5.5-8.3,8-13.6,8c-6.2,0-11.3-3.7-11.3-12.7V53c0-2,1.3-3,3-3c1.7,0,3,1,3,3v21.3c0,7.2,3.2,9,6.6,9
		c5.8,0,11.9-5.2,12.2-16.6V53c0-2,1.5-3,3-3c1.5,0,3,1,3,3v27.2c0,2.3,0.6,3.3,1.8,3.3c1.1,0,1.8-0.7,2.6-1.4c2.9-2.5,6,1.1,3.2,4
		c-1.2,1.3-3,2.9-6.5,2.9C153.7,89.1,151,86.6,151,81.1z"/>
	<path d="M188.2,59.8c-1.9-2.2-4-4-8.1-4c-4,0-6.6,2.5-6.6,5.4c0,3.4,2.9,5.2,6.4,7.5c4.7,2.8,10.4,5.6,10.4,12c0,5.3-4,8.7-9.6,8.7
		c-4.7,0-9.6-2.1-9.6-5.7c0-1.7,1.1-2.9,2.7-2.9c2,0,3.1,3,7,3c2.2,0,3.6-1.1,3.6-2.9c0-3.3-3.7-4.9-7.4-7.1
		c-4.7-2.9-9.4-6-9.4-12.6c0-6.4,5.4-11.1,12.6-11.1c6.3,0,9.9,2.4,12.3,6C194.5,59.1,190.5,62.1,188.2,59.8z"/>
	<path d="M225.4,82c-2.7,4.5-7.7,7.3-13.4,7.3c-8.8,0-14.1-7.2-14.1-16.8C198,60.2,205,50,216.4,50c3.7,0,6.5,1.3,9,4.6v-1.8
		c0-1.9,1.2-2.9,3-2.9c1.8,0,3.1,1,3.1,2.9v27.3c0,2.3,0.6,3.3,1.8,3.3c1.1,0,1.8-0.7,2.6-1.4c2.9-2.5,6,1.1,3.1,4
		c-1.2,1.3-3,2.9-6.4,2.9C228.4,89.1,225.8,86.9,225.4,82z M204.5,72.2c0,6.9,3.3,11.2,8.6,11.2c7.1,0,12.3-7.5,12.3-16v-0.9
		c-0.3-6-3.2-10.7-8.9-10.7C208.7,55.8,204.5,64.2,204.5,72.2z"/>
	<path d="M269.9,81.1c-2.3,5.5-8.3,8-13.6,8c-6.2,0-11.3-3.7-11.3-12.7V53c0-2,1.3-3,3-3c1.7,0,3,1,3,3v21.3c0,7.2,3.2,9,6.6,9
		c5.8,0,11.9-5.2,12.2-16.6V52.9c0-2,1.6-2.9,3.1-2.9c1.4,0,3,0.9,3,2.9v36.8c0,13.5-7.7,19.3-17.9,19.3c-5.8,0-11-1.8-13.4-4
		c-0.9-0.9-1.2-1.7-1.2-2.4c0-1.5,1.2-3,2.9-3c0.9,0,1.7,0.3,2.5,0.9c2.7,1.6,5.2,2.7,9.2,2.7c7.2,0,11.8-4.4,11.8-14.4V81.1z"/>
</g>
<g id="Layer_1">
	<path d="M106.8,32.5c0.1,0.1,0.2,0.1,0.2,0.2c0.4,0.3,0.8,0.7,1.2,1c1,0.8,2.1,1.7,3.1,2.5c0.1,0.1,0.2,0.1,0.2,0.2
		c0.6,0.3,1.1,0.8,1.6,1.3c1.8,1.7,3.1,3.7,3.4,6.1c0,0,0,0.1,0,0.1c0.3,1.7,0.2,3.4-0.5,5c0,0,0,0.1,0,0.1c0.1,0.2-0.1,0.4-0.2,0.6
		c0,0,0,0,0.1,0c0.8-1.1,1.5-2.3,2-3.6c1.2-3.2,1.1-6.3-1.5-9.1c-1.5-1.6-3.2-3-5-4.3c-1.4-1-2.8-2.2-4.1-3.3
		c-1.2-1.1-2.3-2.4-2.6-4.1l0,0c0,0,0,0,0,0c-0.3-0.4-0.2-0.8-0.3-1.3c-0.5,0.7-0.8,1.5-1.2,2.2c-1.3,2.5-2.2,5.2-3,7.9
		c-0.7,2.7-1,5.5-0.5,8.4c0,0,0,0.1,0,0.1c0.4,1.3,0.8,2.6,1.7,3.7c2.1,2.6,4.6,4.6,7.2,6.6c1.9,1.4,3.8,2.7,5.4,4.3
		c1.8,1.7,2.9,3.6,2.5,6.1c0,0.1,0,0.2,0.2,0.3c0.2-0.9,0.3-1.9,0.2-2.9c-0.1-0.7-0.5-1.2-0.6-1.9l0,0c-0.7-1.2-1.7-2.3-2.6-3.4
		c-0.1-0.1-0.2-0.1-0.2-0.2c-0.1,0-0.2-0.1-0.2-0.2c-0.1-0.1-0.2-0.2-0.4-0.3c-0.5-0.4-0.9-0.7-1.4-1.1c-1.4-1.1-2.8-2.2-4.1-3.4
		c-0.1-0.1-0.2-0.1-0.2-0.2c-1.7-1.4-3.2-3-4.2-4.9l0,0c-0.7-1.1-1.2-2.3-1.3-3.6l0,0c-0.6-2-0.3-4,0.2-5.9l0,0c0-0.1,0-0.1,0-0.2
		c0-0.1,0.1-0.2,0.1-0.3c0.3-1.6,1-3.1,1.8-4.5c0,1.1,0,2.1,0,3.2l0,0c0.3,1,0.2,2,0.4,3c0.1,0.3,0.1,0.5,0.2,0.8
		c0.3,1,0.7,2.1,1,3.1l0,0c0.4,0.9,1,1.7,1.2,2.7l0,0c0.1,0,0.1,0.1,0.1,0.2l0,0c0,0.1,0.1,0.1,0.1,0.2l0,0c0.3,0.4,0.5,0.8,0.6,1.2
		l0,0c0.9,1.5,1.8,3,2.8,4.4l0,0c1.2,1.4,2.4,2.9,3.7,4.3c0.1,0.1,0.1,0.1,0.2,0.2c0,0.1,0.1,0.1,0.1,0.2c0,0,0.1,0,0.1,0.1
		c0.5,0.4,0.9,0.9,1.2,1.5l0,0c1,1,1.6,2.2,2.2,3.5l0,0c0.1-0.2,0.1-0.4,0-0.6c-0.4-1.1-0.9-2.1-1.5-3c-1.7-2.4-3.8-4.5-5.4-6.9
		c-1-1.5-2-3.1-2.7-4.7c0,0,0-0.1,0-0.1c-0.5-0.9-0.9-1.8-1.2-2.8c0-0.1,0-0.1-0.1-0.2c-0.7-1.3-1.1-2.7-1.4-4.1
		c-0.3-1.2-0.7-2.5-0.7-3.7c0-0.1,0-0.1,0-0.2c-0.1-0.2-0.1-0.3,0-0.5c0,0,0,0,0,0c-0.4-0.6-0.1-1.3-0.1-1.9
		C105.2,31.1,106.2,31.6,106.8,32.5z"/>
</g>
<g id="Modo_de_aislamiento">
	<path d="M209.6,41.3l-13.7,0c-1,0-1.6-1-1.2-1.8c2-4.4,4-8.6,6.1-13.1c0.4-1,1.8-1,2.3-0.1c2.6,4.4,5,8.7,7.6,13.1
		C211.2,40.3,210.6,41.3,209.6,41.3z"/>
	<path d="M204.1,19.2c2.7-6.1,5.4-11.6,8.7-17.3c0.4-0.6,1.3-0.7,1.7-0.1c3.5,4.5,6.8,8.9,10.4,13.6c1.1,1.4,0.2,3.5-1.6,3.7
		c-6.1,0.7-11.8,1.3-17.9,1.9C204.4,21.2,203.7,20.2,204.1,19.2z"/>
	<path d="M183.3,40.7c0.4,0.2,0.2,0.9-0.2,0.9c-5.1,0.3-10.2,0.6-15.2,0.8c-1,0-2.3,0.1-2.1-1.2c0.4-2.8,1-5.7,1.7-8.5
		c0.4-1.4,1.5-0.8,2.3-0.4L183.3,40.7z"/>
	<path d="M168.7,30.4L188.8,42c0.9,0.5,2.1,0.2,2.5-0.8l7-15.4c0.5-1-0.5-2.1-1.6-1.9L169,28.8C168.2,29,168,30,168.7,30.4z"/>
	<path class="st0" d="M197.3,22.3l-27.6,5.6c-0.9,0.2-1.5-0.9-0.9-1.6l16.1-18.4c0.4-0.5,1.2-0.5,1.7,0l11.5,12
		C198.9,20.6,198.5,22.1,197.3,22.3z"/>
	<path d="M188.8,8.4l10.5,10c0.9,0.8,2.3,0.6,2.8-0.5l8.2-15.3c0.4-0.7-0.3-1.5-1.1-1.3l-20.1,5.4C188.5,6.9,188.2,7.9,188.8,8.4z"
		/>
	<path d="M205.5,25.9l7.3,12.4c0.4,0.7,1.5,0.7,2,0.1L226,22.8c0.6-0.9-0.2-2-1.3-1.9l-17.5,2.2C205.7,23.3,204.9,24.7,205.5,25.9z"
		/>
	<path class="st0" d="M217,3.8l9.3,12c1,1.3,3,1.4,4.2,0.2l4.9-5c0.8-0.9,0.5-2.3-0.6-2.7l-16.7-6C217.2,1.9,216.4,3,217,3.8z"/>
	<path d="M236.4,11.3l-5,6.2c-0.6,0.8-0.2,1.9,0.7,2.2l19,5.2c1.1,0.3,1.9-1.1,1-1.8l-13.4-11.9C238.1,10.5,237,10.6,236.4,11.3z"/>
	<path d="M229.8,23.6l6.5,14.7c0.5,1.2,2.1,1.6,3.2,0.8L253.2,29c0.8-0.6,0.6-1.8-0.4-2.1l-21.2-5.6C230.4,21,229.2,22.3,229.8,23.6
		z"/>
	<path d="M241.8,38.9l11.7-8.3c0.8-0.6,2-0.2,2.3,0.8l2.7,9.3c0.3,1-0.5,1.9-1.5,1.9l-14.4-1C241.2,41.5,240.7,39.7,241.8,38.9z"/>
	<path d="M79.6,135.7H8.5c-2.8,0-5-2.3-5-5v-1.4c0-2.8,2.3-5,5-5h71.1c2.8,0,5,2.3,5,5v1.4C84.6,133.5,82.3,135.7,79.6,135.7z"/>
	<path d="M276.8,135.7h-71.1c-2.8,0-5-2.3-5-5v-1.4c0-2.8,2.3-5,5-5h71.1c2.8,0,5,2.3,5,5v1.4C281.8,133.5,279.5,135.7,276.8,135.7z
		"/>
</g>
</svg>
