<?xml version="1.0" encoding="utf-8"?>
<!-- Generator: Adobe Illustrator 26.0.1, SVG Export Plug-In . SVG Version: 6.00 Build 0)  -->
<svg version="1.1" xmlns="http://www.w3.org/2000/svg" xmlns:xlink="http://www.w3.org/1999/xlink" x="0px" y="0px"
	 viewBox="0 0 400 143.5" style="enable-background:new 0 0 400 143.5;" xml:space="preserve">
<style type="text/css">
	.st0{fill:#FFFFFF;}
	.st1{fill:none;stroke:#FFFFFF;stroke-width:0.3947;stroke-miterlimit:10;}
</style>
<g id="Capa_1">
	<g id="Capa_1_00000015347887765250606840000004027015033683660952_">
	</g>
</g>
<g id="Capa_4">
	<g>
		<path class="st0" d="M177.3,116.4v24.3h-3.8v-12.2h-12.9v12.2h-3.8v-24.3h3.8v9.2h12.9v-9.2H177.3z"/>
		<path class="st0" d="M191.4,123.3c5,0,9,3.9,9,8.8c0,5-4,8.8-9,8.8c-5,0-8.8-3.9-8.8-8.8C182.6,127.2,186.4,123.3,191.4,123.3z
			 M191.4,138c3.2,0,5.9-2.6,5.9-5.8c0-3.1-2.7-5.8-5.9-5.8c-3.2,0-5.8,2.7-5.8,5.8C185.7,135.4,188.3,138,191.4,138z"/>
		<path class="st0" d="M203.6,124.8l0.5-1.1h1.3V120l3.4-2.8v6.6h6.4l-0.3,2.7h-6v7.1c0,3.3,1.7,4.8,3.4,4.8c1.6,0,2.3-0.2,2.8-0.9
			l1.6,2.6c-0.8,0.8-2.5,1.1-3.9,1.1c-4.4,0-7.3-2.4-7.3-7.6v-7L203.6,124.8z"/>
		<path class="st0" d="M234.5,129.1c0.1,0.4,0.2,1.1,0.2,1.7c0,1.8-1.3,2.3-2.8,2.3h-10.6c0.2,3,2.9,5.1,5.5,5.1c2,0,3.9-1,4.7-2.6
			l2.3,1.4c-1.5,2.2-3.6,3.9-7.1,3.9c-4.5,0-8.3-3.9-8.3-9.1c0-4.9,3.4-8.6,8.3-8.6C230.9,123.3,233.5,125.7,234.5,129.1z
			 M221.5,130.7H232c-0.4-2.5-2.4-4.6-5.1-4.6C224.1,126.1,221.8,128.1,221.5,130.7z"/>
		<path class="st0" d="M239.7,140.7v-25h3.3v25H239.7z"/>
	</g>
</g>
<g id="Capa_3">
	<path class="st0" d="M108.7,70.4c-1.4,0-2.9-1.2-2.9-3.1c0-1,0.5-1.7,1.3-2.6c2.6-2.9,4.3-6.5,4.3-11.8c0-7.4-4.3-13.9-15.2-13.9
		c-13.8,0-23.5,12.6-23.5,31.8C72.7,88,81.1,102,97,102c9.3,0,13.7-4.3,17.3-8.1c1.6-1.7,3.4-2.2,4.8-0.8c1.2,1,1.4,2.7,0,4.6
		c-4,5.3-11.1,10.8-22.7,10.8C77.3,108.5,66,92.1,66,70.9c0-22.2,12.4-38.2,30-38.2c14.5,0,21.6,9.4,21.6,20.3
		c0,7.8-3.2,13.6-6.7,16.5C110.4,70.1,109.5,70.4,108.7,70.4z"/>
	<path class="st0" d="M125.1,42.4c0-8.3,3-10.2,8.8-10.2h0.4c1.6,0,2.8-0.3,2.8,1.6c0,1.8-1.1,4.2-2.8,4.2h-0.4
		c-1.8,0-2.8,0.9-2.8,4.2v17.4c3.2-7,9.3-9.1,13.7-9.1c6.2,0,10.7,3.9,10.7,12.3v17.4c0,2.2,0.6,3.3,1.7,3.3c1.1,0,1.7-0.7,2.5-1.4
		c2.8-2.4,5.9,1.1,3.2,4c-1.2,1.3-3,2.8-6.4,2.8c-4.4,0-7.1-2.5-7.1-8V63.5c0-5.2-2.1-7.4-6-7.4c-6,0-12.3,5.4-12.5,16.4v13.3
		c0,1.9-1.5,2.9-3.1,2.9c-1.4,0-2.9-1-2.9-2.9V42.4z"/>
	<path class="st0" d="M208.3,80.9c-2.2,5.4-8.1,7.8-13.3,7.8c-6.1,0-11.1-3.7-11.1-12.5v-23c0-1.9,1.3-2.9,3-2.9c1.6,0,3,1,3,2.9v21
		c0,7.1,3.2,8.8,6.5,8.8c5.7,0,11.7-5.1,12-16.3V53.3c0-1.9,1.4-2.9,3-2.9c1.4,0,3,1,3,2.9v26.8c0,2.2,0.6,3.3,1.7,3.3
		c1.1,0,1.7-0.7,2.5-1.4c2.8-2.4,5.9,1.1,3.2,4c-1.2,1.3-3,2.8-6.4,2.8C210.9,88.8,208.3,86.3,208.3,80.9z"/>
	<path class="st0" d="M244.8,60c-1.8-2.1-4-4-7.9-4c-4,0-6.5,2.4-6.5,5.3c0,3.4,2.8,5.1,6.3,7.3c4.6,2.7,10.2,5.5,10.2,11.8
		c0,5.2-4,8.5-9.5,8.5c-4.6,0-9.5-2-9.5-5.6c0-1.6,1.1-2.8,2.6-2.8c1.9,0,3.1,2.9,6.9,2.9c2.1,0,3.6-1.1,3.6-2.8
		c0-3.3-3.7-4.8-7.2-7c-4.6-2.8-9.3-5.9-9.3-12.4c0-6.3,5.3-10.9,12.4-10.9c6.2,0,9.8,2.3,12.1,5.9C251,59.3,247,62.3,244.8,60z"/>
	<path class="st0" d="M281.3,81.8c-2.6,4.4-7.5,7.2-13.1,7.2c-8.6,0-13.8-7.1-13.8-16.5c0-12.1,7-22,18.2-22c3.7,0,6.4,1.3,8.8,4.5
		v-1.7c0-1.8,1.2-2.8,2.9-2.8c1.7,0,3.1,1,3.1,2.8v26.9c0,2.2,0.6,3.3,1.7,3.3c1.1,0,1.7-0.7,2.5-1.4c2.8-2.4,5.9,1.1,3.1,4
		c-1.2,1.3-3,2.8-6.3,2.8C284.2,88.8,281.7,86.6,281.3,81.8z M260.8,72.2c0,6.8,3.3,11,8.4,11c7,0,12.1-7.3,12.1-15.8v-0.9
		c-0.3-5.9-3.2-10.5-8.7-10.5C264.9,56.1,260.8,64.3,260.8,72.2z"/>
	<path class="st0" d="M325,80.9c-2.2,5.4-8.1,7.8-13.3,7.8c-6.1,0-11.1-3.7-11.1-12.5v-23c0-1.9,1.3-2.9,3-2.9c1.6,0,3,1,3,2.9v21
		c0,7.1,3.2,8.8,6.5,8.8c5.7,0,11.7-5.1,12-16.3V53.2c0-1.9,1.5-2.8,3.1-2.8c1.4,0,2.9,0.9,2.9,2.8v36.1c0,13.2-7.5,18.9-17.6,18.9
		c-5.7,0-10.8-1.7-13.1-4c-0.9-0.9-1.2-1.6-1.2-2.3c0-1.4,1.2-2.9,2.8-2.9c0.9,0,1.6,0.3,2.4,0.9c2.6,1.5,5.1,2.6,9.1,2.6
		c7.1,0,11.6-4.3,11.6-14.1V80.9z"/>
</g>
<g id="Layer_1">
	<path class="st0" d="M164.8,33.1c0.1,0.1,0.1,0.1,0.2,0.2c0.4,0.3,0.8,0.7,1.2,1c1,0.8,2,1.6,3,2.4c0.1,0.1,0.2,0.1,0.2,0.2
		c0.6,0.3,1.1,0.8,1.6,1.3c1.7,1.7,3.1,3.6,3.4,6c0,0,0,0.1,0,0.1c0.3,1.7,0.2,3.4-0.5,4.9c0,0,0,0.1,0,0.1c0.1,0.2-0.1,0.4-0.2,0.6
		c0,0,0,0,0.1,0c0.7-1.1,1.5-2.2,1.9-3.5c1.2-3.2,1.1-6.2-1.4-9c-1.5-1.6-3.2-3-4.9-4.2c-1.4-1-2.8-2.1-4-3.3
		c-1.2-1.1-2.2-2.4-2.5-4l0,0c0,0,0,0,0,0c-0.3-0.4-0.2-0.8-0.3-1.2c-0.5,0.7-0.8,1.4-1.2,2.2c-1.3,2.5-2.2,5.1-2.9,7.7
		c-0.7,2.7-1,5.4-0.5,8.3c0,0,0,0.1,0,0.1c0.4,1.3,0.8,2.6,1.7,3.7c2,2.5,4.5,4.6,7.1,6.5c1.8,1.3,3.7,2.6,5.3,4.2
		c1.7,1.7,2.9,3.6,2.5,6c0,0.1,0,0.2,0.2,0.3c0.2-0.9,0.3-1.8,0.2-2.8c-0.1-0.7-0.5-1.2-0.6-1.9l0,0c-0.7-1.2-1.7-2.3-2.6-3.3
		c-0.1-0.1-0.2-0.1-0.2-0.2c-0.1,0-0.2-0.1-0.2-0.2c-0.1-0.1-0.2-0.2-0.3-0.3c-0.4-0.4-0.9-0.7-1.3-1.1c-1.3-1.1-2.8-2.1-4-3.4
		c-0.1-0.1-0.2-0.1-0.2-0.2c-1.6-1.4-3.1-2.9-4.1-4.8l0,0c-0.7-1.1-1.2-2.2-1.3-3.5l0,0c-0.6-2-0.3-3.9,0.2-5.8l0,0
		c0-0.1,0-0.1,0-0.2c0-0.1,0.1-0.2,0.1-0.3c0.3-1.6,1-3,1.8-4.5c0,1,0,2.1,0,3.1l0,0c0.3,1,0.2,1.9,0.4,2.9c0.1,0.2,0.1,0.5,0.2,0.7
		c0.3,1,0.7,2.1,1,3.1l0,0c0.4,0.9,0.9,1.7,1.1,2.6l0,0c0.1,0,0.1,0.1,0.1,0.2l0,0c0,0.1,0.1,0.1,0.1,0.2l0,0
		c0.3,0.4,0.5,0.8,0.6,1.2l0,0c0.8,1.5,1.8,2.9,2.7,4.3l0,0c1.2,1.4,2.4,2.8,3.6,4.2c0.1,0.1,0.1,0.1,0.2,0.2c0,0.1,0.1,0.1,0.1,0.2
		c0,0,0.1,0,0.1,0.1c0.5,0.4,0.9,0.9,1.2,1.5l0,0c0.9,1,1.6,2.2,2.2,3.4l0,0c0.1-0.2,0.1-0.4,0-0.6c-0.3-1.1-0.8-2.1-1.5-3
		c-1.7-2.3-3.7-4.4-5.3-6.8c-1-1.5-2-3-2.7-4.7c0,0,0,0,0,0c-0.5-0.9-0.9-1.8-1.2-2.7c0-0.1,0-0.1-0.1-0.2c-0.7-1.3-1-2.7-1.4-4
		c-0.3-1.2-0.7-2.4-0.7-3.7c0-0.1,0-0.1,0-0.2c-0.1-0.2-0.1-0.3,0-0.5c0,0,0,0,0,0c-0.4-0.6-0.1-1.3-0.1-1.9
		C163.2,31.8,164.2,32.3,164.8,33.1z"/>
</g>
<g id="Modo_de_aislamiento">
	<path class="st0" d="M265.8,41.9l-13.4,0c-0.9,0-1.6-1-1.2-1.8c2-4.3,3.9-8.5,6-12.9c0.4-0.9,1.8-1,2.3-0.1
		c2.5,4.4,4.9,8.5,7.4,12.9C267.4,40.8,266.8,41.9,265.8,41.9z"/>
	<path class="st0" d="M260.4,20.2c2.7-6,5.3-11.4,8.5-17c0.4-0.6,1.3-0.7,1.7-0.1c3.4,4.4,6.7,8.7,10.2,13.4
		c1.1,1.4,0.2,3.4-1.6,3.6c-6,0.6-11.6,1.2-17.6,1.9C260.7,22.1,260,21.1,260.4,20.2z"/>
	<path class="st0" d="M240,41.3c0.4,0.2,0.2,0.8-0.2,0.9c-5,0.3-10,0.6-15,0.8c-0.9,0-2.3,0.1-2.1-1.2c0.4-2.8,1-5.6,1.7-8.3
		c0.4-1.4,1.5-0.8,2.3-0.4L240,41.3z"/>
	<path class="st0" d="M225.6,31.1l19.8,11.4c0.9,0.5,2.1,0.2,2.5-0.7l6.9-15.1c0.5-1-0.5-2-1.6-1.8L226,29.6
		C225.1,29.7,224.9,30.7,225.6,31.1z"/>
	<path class="st1" d="M253.7,23.2l-27.1,5.5c-0.9,0.2-1.5-0.9-0.9-1.5l15.8-18.1c0.4-0.5,1.2-0.5,1.6,0l11.3,11.8
		C255.3,21.5,254.9,22.9,253.7,23.2z"/>
	<path class="st0" d="M245.4,9.5l10.4,9.8c0.8,0.8,2.2,0.6,2.8-0.4l8.1-15.1c0.4-0.7-0.3-1.5-1-1.3l-19.7,5.3
		C245,8,244.8,9,245.4,9.5z"/>
	<path class="st0" d="M261.8,26.7l7.1,12.2c0.4,0.7,1.5,0.7,1.9,0.1l11-15.3c0.6-0.9-0.2-2-1.3-1.8L263.4,24
		C261.9,24.1,261.1,25.6,261.8,26.7z"/>
	<path class="st1" d="M273.1,5l9.2,11.8c1,1.3,3,1.4,4.1,0.2l4.8-5c0.8-0.9,0.5-2.3-0.6-2.7l-16.4-5.9C273.3,3.2,272.5,4.2,273.1,5z
		"/>
	<path class="st0" d="M292.1,12.4l-4.9,6.1c-0.6,0.8-0.2,1.9,0.7,2.2l18.7,5.1c1.1,0.3,1.8-1.1,1-1.8l-13.2-11.7
		C293.8,11.6,292.7,11.6,292.1,12.4z"/>
	<path class="st0" d="M285.6,24.4l6.4,14.4c0.5,1.2,2,1.6,3.1,0.8l13.5-9.9c0.8-0.6,0.6-1.8-0.4-2.1l-20.8-5.5
		C286.2,21.9,285.1,23.2,285.6,24.4z"/>
	<path class="st0" d="M297.5,39.5l11.5-8.1c0.8-0.6,2-0.2,2.2,0.8l2.6,9.1c0.3,1-0.5,1.9-1.5,1.8l-14.1-1
		C296.9,42,296.4,40.3,297.5,39.5z"/>
	<path class="st0" d="M138,134.6H68.3c-2.8,0-5-2.3-5-5v-1.2c0-2.8,2.3-5,5-5H138c2.8,0,5,2.3,5,5v1.2
		C143,132.3,140.7,134.6,138,134.6z"/>
	<path class="st0" d="M331.7,134.6H262c-2.8,0-5-2.3-5-5v-1.2c0-2.8,2.3-5,5-5h69.7c2.8,0,5,2.3,5,5v1.2
		C336.7,132.3,334.4,134.6,331.7,134.6z"/>
</g>
</svg>
