<?xml version="1.0" encoding="utf-8"?>
<!-- Generator: Adobe Illustrator 26.0.1, SVG Export Plug-In . SVG Version: 6.00 Build 0)  -->
<svg version="1.1" xmlns="http://www.w3.org/2000/svg" xmlns:xlink="http://www.w3.org/1999/xlink" x="0px" y="0px"
	 viewBox="0 0 300 300" style="enable-background:new 0 0 300 300;" xml:space="preserve">
<style type="text/css">
	.st0{fill:#EE771F;}
	.st1{fill:none;stroke:#000000;stroke-width:0.3066;stroke-miterlimit:10;}
</style>
<g id="Capa_1">
	<path class="st0" d="M174.5,173.1c-8.6-12.1-16.8-24.3-25.8-36.1c-5.5-7.2-12.1-13.4-17.9-20.3c-7.8-9.2-15.5-18.6-23-28.1
		c-9.8-12.4-19.5-24.9-29.2-37.4c-0.9-1.2-1.8-2.4-2.3-3.8c-1.4-3.4,0.5-6,4.2-6.1c5-0.2,8.9,2.5,12.7,5.1
		c10.7,7.5,19.5,17.1,27.4,27.4c6.9,9,13.2,18.3,19.5,27.7c4.2,6.2,7.8,12.9,12.1,19.1c4.3,6.4,8.8,12.7,13.7,18.6
		c15.3,18.3,31,36.2,46.3,54.5c4.1,4.9,7.3,10.4,10.9,15.6c0.3,0.5,0.5,1.1,0.7,1.7c1.4,4,0.5,8-2.4,10.3c-2.8,2.2-7.2,2.4-10.5-0.3
		c-3.1-2.5-6-5.4-8.3-8.6c-8.9-12.2-17.6-24.5-26.3-36.8c-0.6-0.8-1.1-1.7-1.7-2.5C174.4,173.2,174.4,173.1,174.5,173.1z"/>
	<path class="st0" d="M205.5,67.9c-5.9,5.9-11.8,11.8-17.7,17.7c-0.8,0.8-2,1.7-0.8,2.9c1.2,1.2,2.2,0.1,3-0.7
		c8.4-7.8,16.8-15.7,25.2-23.5c3.9-3.6,7.9-7.3,11.9-10.8c0.5-0.5,1.4-0.5,2.2-0.8c-0.3,0.8-0.3,1.8-0.9,2.3
		c-11.6,11.7-23.3,23.4-34.9,35.1c-0.5,0.5-1.2,0.9-1.4,1.6c-0.2,0.5-0.2,1.6,0.1,1.9c0.5,0.4,1.4,0.5,2,0.3c0.6-0.2,1-0.9,1.5-1.4
		c11.5-11.4,23-22.9,34.4-34.3c0.3-0.3,0.6-0.8,1-1c0.6-0.3,1.3-0.4,2-0.5c-0.2,0.6-0.2,1.4-0.6,1.8c-3.1,3.5-6.2,7.1-9.5,10.5
		c-7.9,8.5-15.8,16.9-23.7,25.3c-0.4,0.5-0.9,0.9-1.3,1.4c-0.8,0.9-2.1,1.9-0.8,3.2c1.4,1.3,2.2-0.2,3-1
		C211.7,85.9,223,74,234.3,62.1c0.7-0.7,1.8-1,2.8-1.5c-0.4,0.9-0.5,2-1.2,2.8c-12.1,14-24.1,28-36.3,41.8c-1.8,2-4.1,3.7-6.2,5.4
		c-3.9,3.1-8.4,4.7-13.2,5.1c-4,0.3-7.2,2-10.1,4.6c-12.4,10.9-23.7,22.8-33.9,35.7c-11.8,15-22.9,30.5-34.5,45.7
		c-4.2,5.6-8.3,11.3-14,15.6c-4,3.1-8.3,4.6-13.1,2.3c-5.3-2.5-8.6-6.5-9.3-12.4c-0.4-3.4,1.2-6.2,3.2-8.9
		c4.4-5.9,10.3-10.1,16.1-14.4c14.2-10.6,28.7-20.9,42.6-31.9c13.8-10.8,26.6-22.8,38.3-36c2.6-2.9,4.4-6.2,4.7-10.3
		c0.6-7.5,4.4-13.6,9.7-18.6c7.4-7,15-13.8,22.7-20.6c6.4-5.6,13-10.9,19.6-16.3c0.9-0.7,2.1-1,3.1-1.5c-0.5,1-0.9,2.1-1.7,2.9
		C218,57.5,205.8,68.2,205.5,67.9z"/>
</g>
<g id="Modo_de_aislamiento">
	<g>
		<path d="M148.7,241h-12.6c-0.9,0-1.5-0.9-1.1-1.7c1.9-4,3.7-7.9,5.6-12.1c0.4-0.9,1.6-0.9,2.1-0.1c2.4,4.1,4.6,8,7,12.1
			C150.2,240,149.6,241,148.7,241z"/>
		<path d="M143.7,220.7c2.5-5.6,5-10.7,8-15.9c0.3-0.6,1.2-0.6,1.6-0.1c3.2,4.2,6.3,8.2,9.6,12.5c1,1.3,0.2,3.2-1.5,3.4
			c-5.6,0.6-10.8,1.2-16.4,1.8C144,222.5,143.3,221.5,143.7,220.7z"/>
		<path d="M124.6,240.5c0.4,0.2,0.2,0.8-0.2,0.8c-4.7,0.3-9.3,0.5-14,0.8c-0.9,0-2.1,0.1-1.9-1.1c0.4-2.6,0.9-5.2,1.6-7.8
			c0.3-1.3,1.4-0.8,2.2-0.4L124.6,240.5z"/>
		<path d="M111.1,230.9l18.5,10.6c0.8,0.5,2,0.2,2.3-0.7l6.5-14.1c0.4-0.9-0.4-1.9-1.5-1.7l-25.5,4.5
			C110.7,229.6,110.5,230.6,111.1,230.9z"/>
		<path class="st1" d="M137.5,223.5l-25.4,5.1c-0.8,0.2-1.4-0.8-0.8-1.4l14.8-17c0.4-0.5,1.1-0.5,1.5,0l10.6,11
			C138.9,221.9,138.5,223.3,137.5,223.5z"/>
		<path d="M129.6,210.7l9.7,9.2c0.8,0.8,2.1,0.5,2.6-0.4l7.6-14.1c0.4-0.7-0.3-1.4-1-1.2l-18.5,5
			C129.3,209.3,129.1,210.2,129.6,210.7z"/>
		<path d="M145,226.8l6.7,11.4c0.4,0.6,1.4,0.7,1.8,0.1l10.3-14.3c0.6-0.8-0.2-1.9-1.2-1.7l-16.1,2
			C145.1,224.4,144.4,225.7,145,226.8z"/>
		<path class="st1" d="M155.6,206.4l8.6,11.1c1,1.2,2.8,1.3,3.9,0.2l4.5-4.6c0.8-0.8,0.5-2.1-0.6-2.5l-15.4-5.5
			C155.8,204.7,155.1,205.7,155.6,206.4z"/>
		<path d="M173.4,213.4l-4.6,5.7c-0.6,0.7-0.2,1.8,0.7,2l17.5,4.7c1,0.3,1.7-1,0.9-1.7l-12.3-11C175,212.6,174,212.7,173.4,213.4z"
			/>
		<path d="M167.3,224.7l6,13.5c0.5,1.1,1.9,1.5,2.9,0.8l12.7-9.3c0.7-0.5,0.5-1.7-0.4-1.9l-19.5-5.1
			C167.9,222.3,166.8,223.5,167.3,224.7z"/>
		<path d="M178.4,238.8l10.8-7.6c0.8-0.5,1.8-0.2,2.1,0.7l2.4,8.6c0.3,0.9-0.5,1.8-1.4,1.7l-13.2-1
			C177.8,241.1,177.4,239.5,178.4,238.8z"/>
	</g>
</g>
</svg>
