<?xml version="1.0" encoding="utf-8"?>
<!-- Generator: Adobe Illustrator 26.0.1, SVG Export Plug-In . SVG Version: 6.00 Build 0)  -->
<svg version="1.1" xmlns="http://www.w3.org/2000/svg" xmlns:xlink="http://www.w3.org/1999/xlink" x="0px" y="0px"
	 viewBox="0 0 300 300" style="enable-background:new 0 0 300 300;" xml:space="preserve">
<style type="text/css">
	.st0{fill:#1E1E1C;}
	.st1{fill:none;stroke:#1E1E1C;stroke-width:1.2063;stroke-miterlimit:10;}
</style>
<g id="Capa_1">
</g>
<g id="Modo_de_aislamiento">
	<path class="st0" d="M144.5,208.2l-41.1,0c-2.9,0-4.8-3-3.6-5.5c6.1-13.2,12.1-25.9,18.4-39.4c1.3-2.9,5.4-3,7-0.3
		c7.7,13.3,15,26,22.7,39.4C149.4,205,147.5,208.2,144.5,208.2z"/>
	<path class="st0" d="M128,141.9c8.2-18.4,16.2-34.9,26-51.9c1.1-1.9,3.9-2.1,5.2-0.3c10.4,13.6,20.4,26.7,31.2,40.9
		c3.3,4.3,0.6,10.5-4.8,11.1c-18.3,2-35.3,3.8-53.7,5.8C129,147.7,126.8,144.7,128,141.9z"/>
	<path class="st0" d="M65.7,206.4c1.2,0.7,0.7,2.6-0.7,2.6c-15.2,0.8-30.5,1.7-45.7,2.5c-2.9,0.1-6.9,0.4-6.3-3.7
		c1.2-8.5,3.1-17,5.2-25.4c1.1-4.3,4.5-2.5,7-1.2L65.7,206.4z"/>
	<path class="st0" d="M21.9,175.4l60.4,34.7c2.7,1.6,6.4,0.5,7.6-2.3l21.1-46.1c1.4-3-1.4-6.3-4.9-5.7l-83.3,14.6
		C20.3,171.1,19.7,174.2,21.9,175.4z"/>
	<path class="st1" d="M107.7,151l-82.9,16.7c-2.7,0.5-4.6-2.6-2.7-4.7l48.4-55.4c1.3-1.5,3.6-1.6,5-0.1l34.6,36
		C112.6,146.1,111.2,150.3,107.7,151z"/>
	<path class="st0" d="M82.1,109.3l31.7,30.1c2.6,2.4,6.8,1.8,8.5-1.4l24.7-46c1.1-2.1-0.8-4.6-3.2-4l-60.3,16.2
		C81.1,104.8,80.4,107.7,82.1,109.3z"/>
	<path class="st0" d="M132.4,161.9l21.8,37.3c1.2,2.1,4.5,2.2,5.9,0.3l33.7-46.8c1.9-2.6-0.5-6-4-5.6l-52.7,6.5
		C132.8,154.1,130.3,158.4,132.4,161.9z"/>
	<path class="st1" d="M166.9,95.4l28,36.1c3.1,4,9.1,4.3,12.6,0.7l14.8-15.2c2.5-2.6,1.5-7-1.9-8.2l-50.2-18
		C167.5,89.9,165.1,93.1,166.9,95.4z"/>
	<path class="st0" d="M225.1,118.1l-14.9,18.6c-1.9,2.3-0.7,5.9,2.2,6.6l57.1,15.5c3.3,0.9,5.6-3.3,3-5.5l-40.2-35.8
		C230.1,115.6,226.9,115.9,225.1,118.1z"/>
	<path class="st0" d="M205.2,154.9l19.7,44c1.6,3.7,6.2,4.9,9.5,2.5l41.3-30.2c2.4-1.8,1.7-5.5-1.2-6.3l-63.5-16.7
		C206.9,147.2,203.5,151.2,205.2,154.9z"/>
	<path class="st0" d="M241.4,201l35.2-24.8c2.5-1.8,6-0.5,6.9,2.4l8,27.9c0.8,2.9-1.5,5.8-4.6,5.6l-43.2-3.2
		C239.5,208.6,238,203.3,241.4,201z"/>
</g>
</svg>
