<?xml version="1.0" encoding="utf-8"?>
<!-- Generator: Adobe Illustrator 26.0.1, SVG Export Plug-In . SVG Version: 6.00 Build 0)  -->
<svg version="1.1" xmlns="http://www.w3.org/2000/svg" xmlns:xlink="http://www.w3.org/1999/xlink" x="0px" y="0px"
	 viewBox="0 0 300 300" style="enable-background:new 0 0 300 300;" xml:space="preserve">
<style type="text/css">
	.st0{fill:#EE771F;}
</style>
<g id="Capa_1">
	<path d="M152.9,189.7c-22.3,0-44.7,0-67,0c-15.3,0-23.9-8.6-24-23.7c0-26.5,0-53,0-79.5c0-14.7,8.6-23.3,23.2-23.4
		c7.8,0,15.7-0.1,23.5,0.1c3,0.1,4.7-0.8,5.1-3.9c0-0.2,0-0.3,0.1-0.5c3.8-20.8,13.5-24.8,30.8-24c8.3,0.4,16.7,0,25,0.1
		c10.9,0.1,18.6,6.1,21.4,16.7c3.1,11.5,3.1,11.5,15.1,11.5c5.7,0,11.3-0.1,17,0c12.8,0.3,21.7,9.1,21.7,21.9
		c0.1,27.5,0.1,55,0,82.5c0,13.2-9.1,22.1-22.4,22.2C199.2,189.8,176.1,189.7,152.9,189.7z M153.2,175.8c22.7,0,45.3,0,68,0
		c7.1,0,9.6-2.5,9.6-9.6c0-26.5,0-53,0-79.5c0-7.1-2.5-9.7-9.6-9.7c-10.3,0-20.7,0-31,0c-6.1,0-7.8-1.4-9.3-7.4
		c-1.1-4.5-2.2-9-3.3-13.6c-1.1-4.7-3.8-7.2-8.8-7.1c-10.5,0.1-21,0-31.5,0c-4.9,0-7.7,2.3-8.6,7.2c-0.8,4.6-2,9.1-3,13.6
		c-1.3,5.7-3.2,7.2-8.9,7.2c-10.2,0-20.3,0-30.5,0c-8.1,0-10.4,2.3-10.4,10.4c0,26,0,52,0,78c0,8.1,2.3,10.4,10.3,10.4
		C108.6,175.8,130.9,175.8,153.2,175.8z"/>
	<path class="st0" d="M205.9,105c-7.5,0.1-10.5-2.2-10-7.5c0.5-4.8,3.6-6.4,12.6-6.1c5.1,0.2,8.3,2.6,8.2,6.6
		c-0.1,3.7-1.9,6.3-5.8,6.9C209.2,105.2,207.5,105,205.9,105z"/>
</g>
<g id="Modo_de_aislamiento">
	<g>
		<path class="st0" d="M152.5,120.5l-9.1,0c-0.6,0-1.1-0.7-0.8-1.2c1.4-2.9,2.7-5.8,4.1-8.8c0.3-0.6,1.2-0.7,1.6-0.1
			c1.7,3,3.3,5.8,5.1,8.8C153.6,119.8,153.1,120.5,152.5,120.5z"/>
		<path class="st0" d="M148.8,105.7c1.8-4.1,3.6-7.8,5.8-11.6c0.3-0.4,0.9-0.5,1.2-0.1c2.3,3,4.5,5.9,6.9,9.1c0.7,1,0.1,2.3-1.1,2.5
			c-4.1,0.4-7.9,0.8-11.9,1.3C149,107,148.5,106.4,148.8,105.7z"/>
		<path class="st0" d="M134.9,120.1c0.3,0.2,0.2,0.6-0.2,0.6c-3.4,0.2-6.8,0.4-10.2,0.5c-0.6,0-1.5,0.1-1.4-0.8
			c0.3-1.9,0.7-3.8,1.2-5.6c0.2-1,1-0.6,1.6-0.3L134.9,120.1z"/>
		<path class="st0" d="M125.2,113.2l13.5,7.7c0.6,0.4,1.4,0.1,1.7-0.5l4.7-10.3c0.3-0.7-0.3-1.4-1.1-1.3l-18.5,3.2
			C124.8,112.2,124.7,112.9,125.2,113.2z"/>
		<path class="st0" d="M144.3,107.8l-18.5,3.7c-0.6,0.1-1-0.6-0.6-1.1L136,98.1c0.3-0.3,0.8-0.3,1.1,0l7.7,8
			C145.4,106.7,145.1,107.6,144.3,107.8z"/>
		<path class="st0" d="M138.6,98.5l7,6.7c0.6,0.5,1.5,0.4,1.9-0.3l5.5-10.2c0.3-0.5-0.2-1-0.7-0.9l-13.4,3.6
			C138.4,97.5,138.2,98.1,138.6,98.5z"/>
		<path class="st0" d="M149.8,110.2l4.9,8.3c0.3,0.5,1,0.5,1.3,0.1l7.5-10.4c0.4-0.6-0.1-1.3-0.9-1.3l-11.7,1.4
			C149.9,108.5,149.3,109.4,149.8,110.2z"/>
		<path class="st0" d="M157.5,95.4l6.2,8c0.7,0.9,2,1,2.8,0.2l3.3-3.4c0.6-0.6,0.3-1.5-0.4-1.8l-11.2-4
			C157.6,94.2,157.1,94.9,157.5,95.4z"/>
		<path class="st0" d="M170.4,100.4l-3.3,4.1c-0.4,0.5-0.2,1.3,0.5,1.5l12.7,3.4c0.7,0.2,1.2-0.7,0.7-1.2l-9-8
			C171.5,99.9,170.8,99.9,170.4,100.4z"/>
		<path class="st0" d="M166,108.6l4.4,9.8c0.4,0.8,1.4,1.1,2.1,0.6l9.2-6.7c0.5-0.4,0.4-1.2-0.3-1.4l-14.1-3.7
			C166.4,106.9,165.6,107.8,166,108.6z"/>
		<path class="st0" d="M174,118.9l7.8-5.5c0.6-0.4,1.3-0.1,1.5,0.5l1.8,6.2c0.2,0.7-0.3,1.3-1,1.2l-9.6-0.7
			C173.6,120.6,173.3,119.4,174,118.9z"/>
	</g>
	<g>
		<path class="st0" d="M156.1,125.6l9.1-0.1c0.6,0,1.1,0.6,0.8,1.2c-1.3,3-2.6,5.8-3.9,8.8c-0.3,0.6-1.2,0.7-1.5,0.1
			c-1.8-2.9-3.4-5.7-5.2-8.7C155,126.4,155.5,125.7,156.1,125.6z"/>
		<path class="st0" d="M160,140.4c-1.8,4.1-3.5,7.8-5.6,11.6c-0.2,0.4-0.9,0.5-1.2,0.1c-2.4-3-4.6-5.9-7.1-9c-0.7-0.9-0.2-2.3,1-2.5
			c4.1-0.5,7.9-1,11.9-1.5C159.8,139.1,160.3,139.7,160,140.4z"/>
		<path class="st0" d="M173.7,125.8c-0.3-0.2-0.2-0.6,0.1-0.6c3.4-0.2,6.8-0.5,10.2-0.7c0.6,0,1.5-0.1,1.4,0.8
			c-0.2,1.9-0.6,3.8-1.1,5.7c-0.2,1-1,0.6-1.6,0.3L173.7,125.8z"/>
		<path class="st0" d="M183.5,132.5L170,125c-0.6-0.3-1.4-0.1-1.7,0.5l-4.5,10.3c-0.3,0.7,0.3,1.4,1.1,1.2l18.5-3.5
			C183.9,133.5,184,132.8,183.5,132.5z"/>
		<path class="st0" d="M164.5,138.2l18.4-4c0.6-0.1,1,0.6,0.6,1L173,147.8c-0.3,0.3-0.8,0.4-1.1,0l-7.8-7.9
			C163.5,139.4,163.7,138.4,164.5,138.2z"/>
		<path class="st0" d="M170.4,147.4l-7.2-6.6c-0.6-0.5-1.5-0.4-1.9,0.3l-5.3,10.3c-0.2,0.5,0.2,1,0.7,0.9l13.4-3.8
			C170.6,148.4,170.7,147.8,170.4,147.4z"/>
		<path class="st0" d="M159,135.9l-5-8.2c-0.3-0.5-1-0.5-1.3,0l-7.3,10.5c-0.4,0.6,0.1,1.3,0.9,1.2l11.7-1.6
			C158.9,137.7,159.5,136.7,159,135.9z"/>
		<path class="st0" d="M151.5,150.8l-6.4-7.9c-0.7-0.9-2-0.9-2.8-0.1l-3.2,3.4c-0.6,0.6-0.3,1.6,0.5,1.8l11.2,3.8
			C151.4,152.1,151.9,151.3,151.5,150.8z"/>
		<path class="st0" d="M138.5,146l3.3-4.2c0.4-0.5,0.1-1.3-0.5-1.5l-12.8-3.2c-0.7-0.2-1.2,0.7-0.7,1.2l9.1,7.8
			C137.4,146.6,138.1,146.5,138.5,146z"/>
		<path class="st0" d="M142.8,137.7l-4.5-9.7c-0.4-0.8-1.4-1.1-2.1-0.5l-9.1,6.9c-0.5,0.4-0.4,1.2,0.3,1.4l14.2,3.5
			C142.4,139.4,143.2,138.5,142.8,137.7z"/>
		<path class="st0" d="M134.6,127.6l-7.8,5.6c-0.6,0.4-1.3,0.1-1.5-0.5l-1.9-6.2c-0.2-0.7,0.3-1.3,1-1.3l9.6,0.5
			C135,125.9,135.3,127.1,134.6,127.6z"/>
	</g>
</g>
</svg>
