<?xml version="1.0" encoding="utf-8"?>
<!-- Generator: Adobe Illustrator 26.0.1, SVG Export Plug-In . SVG Version: 6.00 Build 0)  -->
<svg version="1.1" xmlns="http://www.w3.org/2000/svg" xmlns:xlink="http://www.w3.org/1999/xlink" x="0px" y="0px"
	 viewBox="0 0 300 300" style="enable-background:new 0 0 300 300;" xml:space="preserve">
<style type="text/css">
	.st0{fill:#EE771F;}
</style>
<g id="Capa_1">
	<path class="st0" d="M197.3,128.8c-17.7,17.5-35.4,35-53.2,52.5c-6,5.9-11.9,11.9-17.9,17.6c-5.5,5.2-11.8,6.4-18.5,3.4
		c-6.8-3.1-10.4-9-10.9-17c-0.3-4.9,1-9.4,4-13.1c7.5-9.5,15.1-18.9,22.7-28.3c5.2-6.5,10.5-13,15.7-19.5c1.6-1.9,3.5-2.3,5.1-1.2
		c2,1.5,2.3,4.2,0.5,6.4c-3,3.8-6.1,7.6-9.2,11.4c-9.4,11.7-18.9,23.5-28.3,35.2c-3.4,4.3-4,9.5-1.7,13.9c3.3,6.2,10.8,7.5,15.9,2.5
		c3.5-3.4,7-6.9,10.5-10.3c14.6-14.4,29.2-28.8,43.9-43.3c0.5-0.5,0.9-1,1.4-1.6c-0.5-0.4-1-0.7-1.4-1c-9.6-6.3-16.5-15-20.9-26.3
		c-0.9-2.3-0.6-4.1,0.9-6c3-3.5,5.9-7.1,8.7-10.8C165.2,92.7,198.4,127.8,197.3,128.8z M167.8,101.9c-1.7,2-3.2,3.8-4.6,5.7
		c-0.3,0.5-0.4,1.5-0.2,2c4.2,9.6,10.7,16.7,19.4,21.5c0.4,0.2,1.2,0.4,1.5,0.1c2-1.8,3.9-3.8,5.9-5.8
		C179.3,121,172,113.3,167.8,101.9z"/>
	<path d="M94.1,203.3c3.3,0,5.4,3.2,4.1,5.5c-4.3,7.8-2.9,15.7-1.2,23.8c1,4.7,2.1,9.3,1,14.2c-1.5,7.2-5.7,12.2-10.9,16.4
		c-1.2,1-2.5,2-3.8,2.8c-1.7,1.1-3.5,0.5-4.7-1.3c-1.2-2-1-4,0.7-5.4c1.9-1.6,4-3,5.9-4.8c5.1-4.7,7-10.5,5.1-17.7
		c-1.8-6.7-2.7-13.5-2-20.5c0.4-3.8,1.1-7.4,3.2-10.5C92.2,204.5,93.5,203.8,94.1,203.3z"/>
</g>
<g id="Modo_de_aislamiento">
	<g>
		<g>
			<path class="st0" d="M198.9,84.8l-10.4,0c-0.7,0-1.2-0.9-0.9-1.6c1.6-3.9,3.1-7.6,4.7-11.6c0.3-0.8,1.4-0.9,1.8-0.1
				c1.9,3.9,3.8,7.7,5.8,11.6C200.2,83.9,199.7,84.8,198.9,84.8z"/>
			<path class="st0" d="M194.8,65.3c2.1-5.4,4.1-10.3,6.6-15.3c0.3-0.6,1-0.6,1.3-0.1c2.6,4,5.2,7.9,7.9,12.1
				c0.8,1.3,0.2,3.1-1.2,3.3c-4.6,0.6-9,1.1-13.6,1.7C195,67,194.5,66.1,194.8,65.3z"/>
			<path class="st0" d="M179,84.3c0.3,0.2,0.2,0.8-0.2,0.8c-3.9,0.2-7.7,0.5-11.6,0.7c-0.7,0-1.7,0.1-1.6-1.1c0.3-2.5,0.8-5,1.3-7.5
				c0.3-1.3,1.1-0.8,1.8-0.3L179,84.3z"/>
			<path class="st0" d="M167.9,75.1l15.3,10.2c0.7,0.5,1.6,0.1,1.9-0.7l5.3-13.6c0.4-0.9-0.4-1.8-1.2-1.7l-21.1,4.3
				C167.5,73.9,167.3,74.8,167.9,75.1z"/>
			<path class="st0" d="M189.6,68l-21,4.9c-0.7,0.2-1.2-0.8-0.7-1.4l12.3-16.3c0.3-0.4,0.9-0.5,1.3,0l8.8,10.6
				C190.9,66.5,190.5,67.7,189.6,68z"/>
			<path class="st0" d="M183.1,55.6l8,8.9c0.7,0.7,1.7,0.5,2.1-0.4l6.3-13.6c0.3-0.6-0.2-1.4-0.8-1.2l-15.3,4.8
				C182.9,54.3,182.7,55.2,183.1,55.6z"/>
			<path class="st0" d="M195.9,71.2l5.5,11c0.3,0.6,1.1,0.7,1.5,0.1l8.5-13.8c0.5-0.8-0.1-1.8-1-1.7l-13.3,1.9
				C196,68.8,195.4,70.1,195.9,71.2z"/>
			<path class="st0" d="M204.6,51.6l7.1,10.7c0.8,1.2,2.3,1.3,3.2,0.2l3.7-4.5c0.6-0.8,0.4-2.1-0.5-2.4l-12.7-5.3
				C204.8,49.9,204.2,50.9,204.6,51.6z"/>
			<path class="st0" d="M219.4,58.2l-3.8,5.5c-0.5,0.7-0.2,1.7,0.5,2l14.5,4.6c0.8,0.3,1.4-1,0.8-1.6l-10.2-10.5
				C220.6,57.5,219.8,57.6,219.4,58.2z"/>
			<path class="st0" d="M214.3,69.1l5,13c0.4,1.1,1.6,1.4,2.4,0.7l10.5-8.9c0.6-0.5,0.4-1.6-0.3-1.9l-16.1-4.9
				C214.8,66.8,213.9,68,214.3,69.1z"/>
			<path class="st0" d="M223.5,82.7l8.9-7.3c0.6-0.5,1.5-0.2,1.7,0.7l2,8.2c0.2,0.9-0.4,1.7-1.2,1.6L224.1,85
				C223,84.9,222.6,83.4,223.5,82.7z"/>
		</g>
		<g>
			<path class="st0" d="M203.1,91.6l10.4-0.2c0.7,0,1.2,0.9,0.9,1.6c-1.5,3.9-3,7.7-4.5,11.7c-0.3,0.9-1.4,0.9-1.8,0.1
				c-2-3.9-3.9-7.6-5.9-11.5C201.9,92.6,202.3,91.6,203.1,91.6z"/>
			<path class="st0" d="M207.5,111.1c-2,5.5-4,10.4-6.4,15.4c-0.3,0.6-1,0.6-1.3,0.1c-2.7-4-5.3-7.8-8.1-11.9
				c-0.8-1.2-0.2-3.1,1.2-3.3c4.6-0.7,8.9-1.3,13.6-2C207.3,109.4,207.8,110.3,207.5,111.1z"/>
			<path class="st0" d="M223.1,91.8c-0.3-0.2-0.2-0.7,0.2-0.8c3.9-0.3,7.7-0.6,11.6-0.9c0.7-0.1,1.7-0.2,1.6,1.1
				c-0.3,2.5-0.7,5-1.2,7.5c-0.3,1.3-1.1,0.8-1.8,0.4L223.1,91.8z"/>
			<path class="st0" d="M234.3,100.7l-15.4-10c-0.7-0.5-1.6-0.1-1.9,0.7l-5.2,13.7c-0.3,0.9,0.4,1.8,1.3,1.6l21-4.7
				C234.7,102,234.8,101.1,234.3,100.7z"/>
			<path class="st0" d="M212.6,108.3l20.9-5.3c0.7-0.2,1.2,0.8,0.7,1.4l-12,16.6c-0.3,0.4-0.9,0.5-1.3,0.1l-8.9-10.5
				C211.4,109.8,211.8,108.5,212.6,108.3z"/>
			<path class="st0" d="M219.3,120.5l-8.1-8.7c-0.7-0.7-1.7-0.5-2.1,0.4l-6.1,13.7c-0.3,0.6,0.2,1.4,0.8,1.2L219,122
				C219.6,121.8,219.7,121,219.3,120.5z"/>
			<path class="st0" d="M206.3,105.2l-5.7-10.9c-0.3-0.6-1.1-0.6-1.5-0.1l-8.3,13.9c-0.5,0.8,0.2,1.8,1,1.6l13.3-2.2
				C206.3,107.5,206.9,106.2,206.3,105.2z"/>
			<path class="st0" d="M197.9,125l-7.2-10.5c-0.8-1.2-2.3-1.2-3.2-0.2l-3.7,4.5c-0.6,0.8-0.4,2.1,0.5,2.4l12.8,5.1
				C197.8,126.6,198.3,125.6,197.9,125z"/>
			<path class="st0" d="M183,118.6l3.7-5.5c0.5-0.7,0.2-1.7-0.6-1.9l-14.5-4.3c-0.8-0.2-1.4,1-0.7,1.6l10.3,10.4
				C181.8,119.3,182.6,119.2,183,118.6z"/>
			<path class="st0" d="M187.9,107.6l-5.2-12.9c-0.4-1.1-1.6-1.4-2.4-0.7l-10.3,9.1c-0.6,0.5-0.4,1.6,0.3,1.9l16.2,4.6
				C187.5,109.9,188.4,108.7,187.9,107.6z"/>
			<path class="st0" d="M178.6,94.2l-8.8,7.5c-0.6,0.5-1.5,0.2-1.7-0.7l-2.1-8.2c-0.2-0.9,0.4-1.7,1.1-1.7l11,0.7
				C179,91.9,179.4,93.5,178.6,94.2z"/>
		</g>
	</g>
</g>
</svg>
